<svg width="24" height="33" viewBox="0 0 24 33" fill="none" xmlns="http://www.w3.org/2000/svg">
<path id="Vector" d="M12 0C5.36571 0 0 5.1645 0 11.55C0 14.421 0.857143 17.1105 2.41714 19.536C4.04571 22.077 6.18857 24.255 7.83429 26.796C8.64 28.0335 9.22286 29.1885 9.84 30.525C10.2857 31.4325 10.6457 33 12 33C13.3543 33 13.7143 31.4325 14.1429 30.525C14.7771 29.1885 15.3429 28.0335 16.1486 26.796C17.7943 24.2715 19.9371 22.0935 21.5657 19.536C23.1429 17.1105 24 14.421 24 11.55C24 5.1645 18.6343 0 12 0ZM12 16.0875C9.63429 16.0875 7.71429 14.2395 7.71429 11.9625C7.71429 9.6855 9.63429 7.8375 12 7.8375C14.3657 7.8375 16.2857 9.6855 16.2857 11.9625C16.2857 14.2395 14.3657 16.0875 12 16.0875Z" fill="#C20F2F"/>
</svg>
