<svg width="52" height="48" viewBox="0 0 52 48" fill="none" xmlns="http://www.w3.org/2000/svg">
<g id="&#240;&#159;&#166;&#134; icon &#34;map&#34;">
<path id="Vector" opacity="0.3" d="M10.8333 36.62L17.3333 34.3V10.9L10.8333 12.92V36.62ZM34.6666 37.1L41.1666 35.08V11.38L34.6666 13.72V37.1Z" fill="#240C66"/>
<path id="Vector_2" d="M44.4167 6L44.07 6.06L32.5 10.2L19.5 6L7.28 9.8C6.825 9.94 6.5 10.3 6.5 10.76V41C6.5 41.56 6.97667 42 7.58333 42L7.93 41.94L19.5 37.8L32.5 42L44.72 38.2C45.175 38.06 45.5 37.7 45.5 37.24V7C45.5 6.44 45.0233 6 44.4167 6ZM17.3333 34.3L10.8333 36.62V12.92L17.3333 10.9V34.3ZM30.3333 37.06L21.6667 34.26V10.94L30.3333 13.74V37.06ZM41.1667 35.08L34.6667 37.1V13.72L41.1667 11.4V35.08Z" fill="#240C66"/>
</g>
</svg>
