<svg width="28" height="28" viewBox="0 0 28 28" fill="none" xmlns="http://www.w3.org/2000/svg">
<g id="Group 38336">
<path id="Ellipse 6" d="M27 14C27 21.1797 21.1797 27 14 27C6.8203 27 1 21.1797 1 14C1 6.8203 6.8203 1 14 1C21.1797 1 27 6.8203 27 14Z" fill="white" stroke="#8F8F8F" stroke-width="2"/>
<g id="&#240;&#159;&#166;&#134; icon &#34;done&#34;">
<path id="Vector" d="M11.6667 18.6667L8.26389 15.2639C7.88473 14.8848 7.28195 14.8848 6.90278 15.2639C6.52362 15.6431 6.52362 16.2459 6.90278 16.625L10.9764 20.6986C11.3556 21.0778 11.9681 21.0778 12.3472 20.6986L22.6528 10.4028C23.0319 10.0236 23.0319 9.42087 22.6528 9.0417C22.2736 8.66253 21.6708 8.66253 21.2917 9.0417L11.6667 18.6667Z" fill="#8E8E8E"/>
</g>
</g>
</svg>
