<svg width="28" height="28" viewBox="0 0 28 28" fill="none" xmlns="http://www.w3.org/2000/svg">
<g id="&#240;&#159;&#166;&#134; icon &#34;search&#34;">
<path id="Vector" d="M18.0833 16.3334H17.1617L16.835 16.0184C18.235 14.3851 18.9583 12.1567 18.5617 9.78839C18.0133 6.54506 15.3067 3.95506 12.04 3.55839C7.105 2.95173 2.95166 7.10506 3.55833 12.0401C3.955 15.3067 6.545 18.0134 9.78833 18.5617C12.1567 18.9584 14.385 18.2351 16.0183 16.8351L16.3333 17.1617V18.0834L21.2917 23.0417C21.77 23.5201 22.5517 23.5201 23.03 23.0417C23.5083 22.5634 23.5083 21.7817 23.03 21.3034L18.0833 16.3334ZM11.0833 16.3334C8.17833 16.3334 5.83333 13.9884 5.83333 11.0834C5.83333 8.17839 8.17833 5.83339 11.0833 5.83339C13.9883 5.83339 16.3333 8.17839 16.3333 11.0834C16.3333 13.9884 13.9883 16.3334 11.0833 16.3334Z" fill="#BF3333"/>
</g>
</svg>
