<svg width="36" height="45" viewBox="0 0 36 45" fill="none" xmlns="http://www.w3.org/2000/svg">
<g id="&#240;&#159;&#166;&#134; icon &#34;book&#34;">
<path id="Vector" d="M36 31.1538V2.07692C36 0.925962 35.1402 0 34.0714 0H7.71429C3.45536 0 0 3.72115 0 8.30769V36C0 40.5865 3.45536 44.3077 7.71429 44.3077H34.0714C35.1402 44.3077 36 43.3817 36 42.2308V40.8462C36 40.1971 35.7188 39.6087 35.2848 39.2279C34.9473 37.8952 34.9473 34.0962 35.2848 32.7635C35.7188 32.3913 36 31.8029 36 31.1538ZM10.2857 11.5962C10.2857 11.3106 10.5027 11.0769 10.7679 11.0769H27.8036C28.0688 11.0769 28.2857 11.3106 28.2857 11.5962V13.3269C28.2857 13.6125 28.0688 13.8462 27.8036 13.8462H10.7679C10.5027 13.8462 10.2857 13.6125 10.2857 13.3269V11.5962ZM10.2857 17.1346C10.2857 16.849 10.5027 16.6154 10.7679 16.6154H27.8036C28.0688 16.6154 28.2857 16.849 28.2857 17.1346V18.8654C28.2857 19.151 28.0688 19.3846 27.8036 19.3846H10.7679C10.5027 19.3846 10.2857 19.151 10.2857 18.8654V17.1346ZM30.6482 38.7692H7.71429C6.29196 38.7692 5.14286 37.5317 5.14286 36C5.14286 34.4769 6.3 33.2308 7.71429 33.2308H30.6482C30.4955 34.7106 30.4955 37.2894 30.6482 38.7692Z" fill="#240C66"/>
</g>
</svg>
