<svg width="36" height="37" viewBox="0 0 36 37" fill="none" xmlns="http://www.w3.org/2000/svg">
<g id="&#240;&#159;&#166;&#134; icon &#34;close&#34;">
<path id="Vector" d="M27.45 8.57262C26.865 7.9871 25.92 7.9871 25.335 8.57262L18 15.8991L10.665 8.55761C10.08 7.97209 9.13496 7.97209 8.54996 8.55761C7.96496 9.14312 7.96496 10.089 8.54996 10.6745L15.885 18.0159L8.54996 25.3574C7.96496 25.9429 7.96496 26.8888 8.54996 27.4743C9.13496 28.0598 10.08 28.0598 10.665 27.4743L18 20.1328L25.335 27.4743C25.92 28.0598 26.865 28.0598 27.45 27.4743C28.035 26.8888 28.035 25.9429 27.45 25.3574L20.115 18.0159L27.45 10.6745C28.02 10.104 28.02 9.14312 27.45 8.57262Z" fill="#A5001E"/>
</g>
</svg>
